<?xml version="1.0" encoding="UTF-8" standalone="no"?>
<!DOCTYPE svg PUBLIC "-//W3C//DTD SVG 1.1//EN" "http://www.w3.org/Graphics/SVG/1.1/DTD/svg11.dtd">
<svg width="100%" height="100%" viewBox="0 0 4000 4000" version="1.1" xmlns="http://www.w3.org/2000/svg" xmlns:xlink="http://www.w3.org/1999/xlink" xml:space="preserve" xmlns:serif="http://www.serif.com/" style="fill-rule:evenodd;clip-rule:evenodd;stroke-linejoin:round;stroke-miterlimit:2;">
    <path d="M1748,2562.53C1758.72,2581.1 1778.53,2592.53 1799.96,2592.53C1821.4,2592.53 1841.21,2581.1 1851.93,2562.53C2053.15,2214 2770.01,972.372 2770.01,972.372C2811.43,900.628 2903.16,876.047 2974.91,917.468C2974.91,917.468 2974.91,917.469 2974.91,917.469C3046.65,958.89 3071.24,1050.63 3029.81,1122.37L1932.89,3022.29C1923.52,3040.15 1910.61,3055.97 1894.92,3068.75C1848.03,3107.1 1780.48,3114.61 1724.91,3082.53C1724.91,3082.53 1724.91,3082.53 1724.91,3082.53C1699.43,3067.82 1679.9,3046.77 1667.16,3022.51L970.191,1815.32C950.271,1780.82 944.873,1739.82 955.184,1701.34C965.496,1662.86 990.671,1630.05 1025.17,1610.13C1025.17,1610.13 1025.17,1610.13 1025.17,1610.13C1059.58,1590.26 1100.46,1584.88 1138.83,1595.16C1177.2,1605.44 1209.92,1630.55 1229.78,1664.95C1229.78,1664.95 1607.37,2318.94 1748,2562.53Z"/>
</svg>
