<?xml version="1.0" encoding="UTF-8" standalone="no"?>
<!DOCTYPE svg PUBLIC "-//W3C//DTD SVG 1.1//EN" "http://www.w3.org/Graphics/SVG/1.1/DTD/svg11.dtd">
<svg width="100%" height="100%" viewBox="0 0 4000 4000" version="1.1" xmlns="http://www.w3.org/2000/svg" xmlns:xlink="http://www.w3.org/1999/xlink" xml:space="preserve" xmlns:serif="http://www.serif.com/" style="fill-rule:evenodd;clip-rule:evenodd;stroke-linecap:round;stroke-linejoin:round;stroke-miterlimit:1.5;">
    <path d="M1021.44,1010.54C983.217,959.374 991.772,887.236 1040.9,846.427C1105.31,792.97 1175.09,744.214 1250,700.962C1324.91,657.71 1402.03,621.664 1480.53,592.607C1540.43,570.467 1607.18,599.127 1632.39,657.81C1693.66,800.202 1835.27,900 2000,900C2164.62,900 2306.15,800.341 2367.49,658.109C2392.7,599.529 2459.34,570.911 2519.19,592.959C2677.68,651.337 2826.83,736.471 2959.14,846.368C3008.27,887.175 3016.82,959.313 2978.59,1010.47C2885.89,1134.75 2870.25,1307.32 2952.63,1450C3035.01,1592.68 3192.27,1665.42 3346.24,1647.26C3409.67,1639.74 3467.88,1683.22 3478.66,1746.18C3507.65,1915.72 3506.8,2087.46 3478.11,2253.88C3467.28,2316.73 3409.19,2360.12 3345.85,2352.67C3192.01,2334.7 3034.94,2407.44 2952.63,2550C2870.26,2692.66 2885.88,2865.2 2978.56,2989.46C3016.78,3040.63 3008.23,3112.76 2959.1,3153.57C2894.69,3207.03 2824.91,3255.79 2750,3299.04C2675.09,3342.29 2597.97,3378.34 2519.47,3407.39C2459.57,3429.53 2392.82,3400.87 2367.61,3342.19C2306.34,3199.8 2164.73,3100 2000,3100C1835.38,3100 1693.85,3199.66 1632.51,3341.89C1607.3,3400.47 1540.66,3429.09 1480.81,3407.04C1322.32,3348.66 1173.17,3263.53 1040.86,3153.63C991.733,3112.83 983.183,3040.69 1021.41,2989.53C1114.11,2865.25 1129.75,2692.68 1047.37,2550C964.994,2407.32 807.73,2334.58 653.757,2352.74C590.326,2360.26 532.118,2316.78 521.342,2253.82C492.351,2084.28 493.2,1912.54 521.895,1746.12C532.72,1683.27 590.814,1639.88 654.147,1647.33C807.994,1665.3 965.063,1592.56 1047.37,1450C1129.74,1307.34 1114.12,1134.8 1021.44,1010.54ZM1725,1523.69C1987.88,1371.91 2324.54,1462.12 2476.31,1725C2628.09,1987.88 2537.89,2324.54 2275,2476.31C2012.12,2628.09 1675.46,2537.89 1523.69,2275C1371.91,2012.12 1462.12,1675.46 1725,1523.69Z" style="fill:rgb(180,180,180);stroke:black;stroke-width:80px;"/>
</svg>
